<?xml version="1.0" encoding="utf-8"?>
<svg id="master-artboard" viewBox="0 0 90 90" xmlns="http://www.w3.org/2000/svg" width="90px" height="90px"><rect id="ee-background" x="0" y="0" width="90" height="90" style="fill: white; fill-opacity: 0; pointer-events: none;"/><title>social-media-icons-all-updated-tiktok</title><path d="M 505 672.5 A 42.5 42.5 0 0 1 462.5 715 A 42.5 42.5 0 0 1 420 672.5 A 42.5 42.5 0 0 1 462.5 630 A 42.5 42.5 0 0 1 505 672.5 Z" id="back-67" data-name="back" class="cls-1" style="fill: rgb(38, 38, 38);" transform="matrix(1, 0, 0, 1, -417.602294921875, -626.4035339355469)"/><path class="cls-3" d="M462.5,649.29A23.8,23.8,0,0,0,455,695.67c1.19.22,1.62-.52,1.62-1.14s0-2.45,0-4.43c-6.62,1.43-8-2.81-8-2.81-1.08-2.75-2.64-3.49-2.64-3.49-2.16-1.47.16-1.44.16-1.44a5,5,0,0,1,3.65,2.45c2.12,3.64,5.57,2.59,6.93,2a5,5,0,0,1,1.51-3.18c-5.29-.6-10.85-2.65-10.85-11.77a9.17,9.17,0,0,1,2.46-6.38,8.5,8.5,0,0,1,.23-6.3s2-.64,6.54,2.44a22.6,22.6,0,0,1,11.92,0c4.55-3.08,6.54-2.44,6.54-2.44a8.5,8.5,0,0,1,.23,6.3,9.16,9.16,0,0,1,2.45,6.38c0,9.15-5.56,11.16-10.86,11.75a5.7,5.7,0,0,1,1.61,4.41c0,3.18,0,5.74,0,6.53,0,.63.43,1.37,1.64,1.14a23.8,23.8,0,0,0-7.54-46.38Z" transform="matrix(1, 0, 0, 1, -417.602294921875, -626.4035339355469)" style="fill: rgb(255, 255, 255); fill-rule: evenodd;"/><path class="cls-2" d="M447.71,683.46c0,.12-.23.15-.4.07s-.27-.24-.22-.36.24-.15.41-.07.27.24.21.36Zm-.29-.22" transform="matrix(1, 0, 0, 1, -417.602294921875, -626.4035339355469)" style="fill: rgb(255, 255, 255);"/><path class="cls-2" d="M448.68,684.53c-.11.11-.34.06-.49-.11a.37.37,0,0,1-.07-.49c.12-.11.33-.06.49.11s.19.39.07.49Zm-.23-.24" transform="matrix(1, 0, 0, 1, -417.602294921875, -626.4035339355469)" style="fill: rgb(255, 255, 255);"/><path class="cls-2" d="M449.62,685.91c-.15.1-.39,0-.53-.21s-.15-.47,0-.57.38,0,.53.2.15.47,0,.58Zm0,0" transform="matrix(1, 0, 0, 1, -417.602294921875, -626.4035339355469)" style="fill: rgb(255, 255, 255);"/><path class="cls-2" d="M450.9,687.23c-.13.14-.41.1-.61-.09s-.27-.47-.13-.61.41-.1.61.09.27.47.13.61Zm0,0" transform="matrix(1, 0, 0, 1, -417.602294921875, -626.4035339355469)" style="fill: rgb(255, 255, 255);"/><path class="cls-2" d="M452.68,688c-.06.18-.33.27-.6.19s-.44-.3-.39-.49.33-.27.6-.19.44.3.39.49Zm0,0" transform="matrix(1, 0, 0, 1, -417.602294921875, -626.4035339355469)" style="fill: rgb(255, 255, 255);"/><path class="cls-2" d="M454.62,688.14c0,.2-.22.36-.5.36s-.52-.15-.52-.34.22-.36.51-.37.51.16.51.35Zm0,0" transform="matrix(1, 0, 0, 1, -417.602294921875, -626.4035339355469)" style="fill: rgb(255, 255, 255);"/><path class="cls-2" d="M456.44,687.83c0,.19-.17.39-.45.44s-.53-.06-.56-.25.16-.4.44-.45.53.07.57.26Zm0,0" transform="matrix(1, 0, 0, 1, -417.602294921875, -626.4035339355469)" style="fill: rgb(255, 255, 255);"/></svg>