<?xml version="1.0" encoding="utf-8"?>
<svg id="master-artboard" viewBox="0 0 90 90" xmlns="http://www.w3.org/2000/svg" width="90px" height="90px"><rect id="ee-background" x="0" y="0" width="90" height="90" style="fill: white; fill-opacity: 0; pointer-events: none;" transform="matrix(1, 0, 0, 1, 2, 0)"/><title>social-media-icons-all-updated-tiktok</title><path d="M 190 777.5 A 42.5 42.5 0 0 1 147.5 820 A 42.5 42.5 0 0 1 105 777.5 A 42.5 42.5 0 0 1 147.5 735 A 42.5 42.5 0 0 1 190 777.5 Z" id="back-64" data-name="back" class="cls-1" style="fill: rgb(38, 38, 38);" transform="matrix(1, 0, 0, 1, -102.9897232055664, -732.2150001525879)"/><path class="cls-2" d="M124.31,769.36h9.87V801.1h-9.87Zm4.94-15.77a5.72,5.72,0,1,1-5.72,5.72,5.72,5.72,0,0,1,5.72-5.72" transform="matrix(1, 0, 0, 1, -102.9897232055664, -732.2150001525879)" style="fill: rgb(255, 255, 255);"/><path class="cls-2" d="M140.37,769.36h9.45v4.34H150a10.36,10.36,0,0,1,9.33-5.12c10,0,11.83,6.57,11.83,15.11V801.1h-9.86V785.67c0-3.68-.06-8.42-5.12-8.42s-5.92,4-5.92,8.15v15.7h-9.85Z" transform="matrix(1, 0, 0, 1, -102.9897232055664, -732.2150001525879)" style="fill: rgb(255, 255, 255);"/></svg>